<svg xmlns="http://www.w3.org/2000/svg" width="52.105" height="52.105" viewBox="0 0 52.105 52.105" xml:space="preserve"><path d="M26.053 0C11.688 0 0 11.687 0 26.053c0 14.365 11.687 26.053 26.053 26.053 14.365 0 26.053-11.688 26.053-26.053C52.105 11.687 40.418 0 26.053 0m0 50.855c-13.677 0-24.803-11.127-24.803-24.803S12.376 1.25 26.053 1.25s24.803 11.126 24.803 24.803c-.001 13.676-11.126 24.802-24.803 24.802"/><path d="M26.051 5.449c-11.359 0-20.602 9.243-20.602 20.604s9.243 20.604 20.602 20.604c11.361 0 20.605-9.243 20.605-20.604 0-11.362-9.244-20.604-20.605-20.604M6.699 26.053c0-10.671 8.681-19.354 19.352-19.354 2.305 0 4.506.426 6.557 1.167l-5.535 13.93a4.4 4.4 0 0 0-1.02-.131 4.39 4.39 0 0 0-4.387 4.387c0 .728.194 1.403.509 2.007l-12.206 8.74a19.23 19.23 0 0 1-3.27-10.746m22.49 0a3.14 3.14 0 0 1-3.137 3.137 3.14 3.14 0 0 1-3.137-3.137 3.14 3.14 0 0 1 3.137-3.137 3.14 3.14 0 0 1 3.137 3.137M10.712 37.806l12.183-8.723c.286.299.62.547.98.755l-5.544 13.951a19.44 19.44 0 0 1-7.619-5.983m34.694-11.753c0 10.672-8.684 19.354-19.355 19.354a19.2 19.2 0 0 1-6.554-1.166l5.537-13.932c.328.079.666.131 1.018.131a4.393 4.393 0 0 0 4.388-4.387c0-.727-.195-1.403-.51-2.007l12.206-8.739a19.23 19.23 0 0 1 3.27 10.746m-16.195-3.03a4.4 4.4 0 0 0-.98-.755l5.545-13.95a19.45 19.45 0 0 1 7.618 5.983z"/></svg>